<svg width="270" height="291" viewBox="0 0 270 291" fill="none" xmlns="http://www.w3.org/2000/svg">
<path d="M137.589 274.893C137.589 276.349 136.456 277.482 135 277.482C119.302 277.482 106.518 264.698 106.518 249C106.518 247.544 107.651 246.411 109.107 246.411C110.564 246.411 111.696 247.544 111.696 249C111.696 261.785 122.215 272.304 135 272.304C136.456 272.304 137.589 273.436 137.589 274.893ZM29.8103 228.286C58.7779 195.596 72.8571 151.254 72.8571 93.6428C72.8571 72.7667 92.6005 41.8571 135 41.8571C177.4 41.8571 197.143 72.7667 197.143 93.6428C197.143 151.254 211.222 195.596 240.19 228.286H29.8103ZM269.643 228.286C245.692 208.057 217.857 171.807 217.857 93.6428C217.857 62.5714 192.126 28.587 149.241 22.2757C150.05 20.3337 150.536 18.2299 150.536 15.9643C150.536 7.38727 143.577 0.428552 135 0.428552C126.423 0.428552 119.464 7.38727 119.464 15.9643C119.464 18.2299 119.95 20.3337 120.759 22.2757C77.8739 28.587 52.1429 62.5714 52.1429 93.6428C52.1429 171.807 24.308 208.057 0.357143 228.286C0.357143 239.614 9.7433 249 21.0714 249H93.5714C93.5714 271.818 112.182 290.429 135 290.429C157.818 290.429 176.429 271.818 176.429 249H248.929C260.257 249 269.643 239.614 269.643 228.286Z" fill="#6A6A6A"/>
</svg>
