<svg width="500" height="500" viewBox="0 0 500 500" fill="none" xmlns="http://www.w3.org/2000/svg">
<circle cx="250" cy="250" r="240" fill="black" stroke="url(#paint0_linear)" stroke-width="20"/>
<path d="M341.758 205.504C357.617 211.168 370.456 217.965 380.273 225.895C390.091 233.447 395 241.565 395 250.25C395 258.935 389.714 267.431 379.141 275.738C368.945 284.046 355.352 290.842 338.359 296.129C336.094 296.884 334.395 297.451 333.262 297.828C334.017 300.471 334.583 303.115 334.961 305.758C337.227 316.708 338.171 326.715 337.793 335.777C337.415 344.84 335.716 352.77 332.695 359.566C330.052 366.363 326.276 371.083 321.367 373.727C313.815 377.88 304.375 378.069 293.047 374.293C282.096 370.517 270.391 363.531 257.93 353.336C254.909 350.315 252.454 347.861 250.566 345.973C248.678 347.861 246.602 349.749 244.336 351.637C231.875 362.587 219.603 369.951 207.52 373.727C195.814 377.88 186.185 377.88 178.633 373.727C171.081 369.573 166.172 361.643 163.906 349.938C161.641 338.232 162.018 324.449 165.039 308.59C165.794 305.191 166.549 301.793 167.305 298.395C165.417 298.017 162.773 297.262 159.375 296.129C143.138 290.465 129.922 283.479 119.727 275.172C109.909 266.865 105 258.557 105 250.25C105 241.943 109.72 233.824 119.16 225.895C128.6 217.965 141.25 211.357 157.109 206.07C160.508 204.938 163.906 203.805 167.305 202.672C166.549 199.651 165.983 196.441 165.605 193.043C162.207 177.184 161.641 163.401 163.906 151.695C166.172 139.612 171.081 131.305 178.633 126.773C186.185 122.62 196.003 122.62 208.086 126.773C220.169 130.927 232.63 138.857 245.469 150.562C246.979 152.073 248.49 153.583 250 155.094C252.643 152.451 255.098 150.185 257.363 148.297C269.824 137.346 281.53 129.983 292.48 126.207C303.809 122.431 313.249 122.62 320.801 126.773C328.73 130.927 333.828 139.423 336.094 152.262C338.359 164.723 337.604 179.449 333.828 196.441C333.451 199.085 333.073 201.161 332.695 202.672C335.716 203.427 338.737 204.371 341.758 205.504ZM265.293 157.359C263.027 159.247 260.762 161.324 258.496 163.59C267.181 173.03 275.299 183.036 282.852 193.609C295.312 194.742 307.962 196.819 320.801 199.84C321.178 198.329 321.556 196.441 321.934 194.176C324.954 179.449 325.71 166.988 324.199 156.793C323.066 146.598 320.046 139.99 315.137 136.969C310.228 134.326 303.242 134.892 294.18 138.668C285.117 142.444 275.488 148.674 265.293 157.359ZM199.59 279.703C197.324 275.172 194.681 270.074 191.66 264.41C187.884 273.473 184.863 281.969 182.598 289.898C190.905 291.786 199.59 293.108 208.652 293.863C206.009 290.087 202.988 285.367 199.59 279.703ZM182.598 211.168C185.241 219.475 188.262 227.783 191.66 236.09C193.926 231.559 196.569 226.65 199.59 221.363C202.233 216.832 205.065 211.923 208.086 206.637C199.023 207.77 190.527 209.28 182.598 211.168ZM197.891 250.25C202.044 258.557 206.198 266.298 210.352 273.473C214.505 281.025 219.036 288.388 223.945 295.562C232.63 295.94 241.315 296.129 250 296.129C259.062 296.129 267.747 295.94 276.055 295.562C281.341 287.633 285.872 280.081 289.648 272.906C294.18 265.354 298.333 257.802 302.109 250.25C297.956 241.943 293.802 234.202 289.648 227.027C285.495 219.853 280.964 212.678 276.055 205.504C267.37 204.749 258.685 204.371 250 204.371C241.315 204.371 232.63 204.749 223.945 205.504C218.659 213.056 214.128 220.419 210.352 227.594C205.82 235.523 201.667 243.076 197.891 250.25ZM300.41 279.137C297.012 285.178 293.991 290.087 291.348 293.863C300.41 292.73 309.284 291.22 317.969 289.332C315.326 280.647 312.305 272.34 308.906 264.41C305.885 270.074 303.053 274.983 300.41 279.137ZM308.34 236.09C312.116 227.783 315.137 219.475 317.402 211.168C309.473 209.28 300.977 207.77 291.914 206.637C294.557 211.546 297.389 216.454 300.41 221.363C302.676 225.139 305.319 230.048 308.34 236.09ZM250 172.086C243.958 178.505 238.294 185.302 233.008 192.477C244.336 192.099 255.664 192.099 266.992 192.477C261.706 185.302 256.042 178.505 250 172.086ZM184.297 137.535C179.766 140.178 176.745 146.409 175.234 156.227C174.102 165.667 174.857 177.184 177.5 190.777C178.255 194.553 178.822 197.385 179.199 199.273C192.038 196.63 204.688 194.742 217.148 193.609C224.701 183.036 232.819 173.03 241.504 163.59C238.861 160.947 237.539 159.625 237.539 159.625C226.589 149.807 216.204 143.01 206.387 139.234C196.569 135.081 189.206 134.514 184.297 137.535ZM170.703 287.066C174.479 274.228 179.01 261.956 184.297 250.25C179.01 238.544 174.479 226.461 170.703 214C166.927 215.133 163.717 216.266 161.074 217.398C147.858 221.93 137.285 227.216 129.355 233.258C121.426 239.299 117.461 244.964 117.461 250.25C118.216 257.424 121.615 263.089 127.656 267.242C136.719 274.039 148.613 279.892 163.34 284.801C165.983 285.556 168.438 286.311 170.703 287.066ZM236.406 342.574C238.294 341.064 240.182 339.365 242.07 337.477C233.008 327.659 224.889 317.464 217.715 306.891C204.876 306.135 192.038 304.247 179.199 301.227C178.444 304.247 177.689 307.457 176.934 310.855C174.668 324.449 174.102 335.966 175.234 345.406C176.745 354.469 179.954 360.322 184.863 362.965C191.283 365.608 197.891 365.419 204.688 362.398C216.393 357.867 226.966 351.259 236.406 342.574ZM250.566 328.414C256.608 321.617 262.083 314.82 266.992 308.023C261.706 308.401 256.042 308.59 250 308.59C244.336 308.59 238.672 308.401 233.008 308.023C238.672 315.576 244.525 322.372 250.566 328.414ZM324.766 345.406C326.276 332.568 325.71 320.107 323.066 308.023C322.689 305.758 322.122 303.492 321.367 301.227C308.906 303.87 296.068 305.758 282.852 306.891C275.677 317.464 267.747 327.659 259.062 337.477C262.083 340.497 264.538 342.574 266.426 343.707C272.845 349.749 279.264 354.658 285.684 358.434C292.48 361.832 298.145 363.909 302.676 364.664C307.585 365.419 311.738 365.042 315.137 363.531C320.801 359 324.01 352.958 324.766 345.406ZM334.961 284.801C344.023 281.78 352.142 278.193 359.316 274.039C366.868 269.885 372.533 265.732 376.309 261.578C380.462 257.424 382.539 253.46 382.539 249.684C382.539 244.775 378.385 239.299 370.078 233.258C361.771 226.839 351.009 221.363 337.793 216.832C334.772 216.077 331.94 215.322 329.297 214.566C325.521 227.027 320.99 238.922 315.703 250.25C321.367 262.333 326.087 274.228 329.863 285.934C330.996 285.934 332.695 285.556 334.961 284.801ZM268.125 268.941C263.216 273.85 257.174 276.305 250 276.305C242.826 276.305 236.595 273.85 231.309 268.941C226.4 263.655 223.945 257.424 223.945 250.25C223.945 243.076 226.4 237.034 231.309 232.125C236.595 226.839 242.826 224.195 250 224.195C257.174 224.195 263.216 226.839 268.125 232.125C273.411 237.034 276.055 243.076 276.055 250.25C276.055 257.424 273.411 263.655 268.125 268.941Z" fill="url(#paint1_linear)"/>
<defs>
<linearGradient id="paint0_linear" x1="500" y1="0" x2="0" y2="500" gradientUnits="userSpaceOnUse">
<stop stop-color="#A2F9FF"/>
<stop offset="1" stop-color="#5AA6FF"/>
</linearGradient>
<linearGradient id="paint1_linear" x1="105" y1="380" x2="395" y2="121" gradientUnits="userSpaceOnUse">
<stop stop-color="#03A4FF"/>
<stop offset="1" stop-color="#B3FAFF"/>
</linearGradient>
</defs>
</svg>
