<svg width="512" height="512" viewBox="0 0 512 512" fill="none" xmlns="http://www.w3.org/2000/svg">
<path d="M181.341 0C81.3521 0 0.00805664 81.344 0.00805664 181.333C0.00805664 281.322 81.3521 362.666 181.341 362.666C281.33 362.666 362.674 281.322 362.674 181.333C362.674 81.344 281.331 0 181.341 0ZM181.341 341.333C93.1061 341.333 21.3411 269.568 21.3411 181.333C21.3411 93.098 93.1061 21.333 181.341 21.333C269.576 21.333 341.341 93.098 341.341 181.333C341.341 269.568 269.576 341.333 181.341 341.333Z" fill="#6A6A6A"/>
<path d="M508.872 493.803L309.555 294.485C305.395 290.325 298.632 290.325 294.472 294.485C290.312 298.645 290.312 305.408 294.472 309.568L493.789 508.885C495.88 510.954 498.61 512 501.341 512C504.072 512 506.802 510.955 508.872 508.885C513.032 504.725 513.032 497.963 508.872 493.803Z" fill="#6A6A6A"/>
</svg>
