<svg width="472" height="472" viewBox="0 0 472 472" fill="none" xmlns="http://www.w3.org/2000/svg">
<g clip-path="url(#clip0)">
<path d="M457.7 230.15C450.2 230.15 444.2 236.15 444.2 243.65V366.45C444.2 399.85 417 426.95 383.7 426.95H87.5C54.1 426.95 27 399.75 27 366.45V241.65C27 234.15 21 228.15 13.5 228.15C6 228.15 0 234.15 0 241.65V366.45C0 414.75 39.3 453.95 87.5 453.95H383.7C432 453.95 471.2 414.65 471.2 366.45V243.65C471.2 236.25 465.2 230.15 457.7 230.15Z" fill="#6A6A6A"/>
<path d="M159.3 126.15L222.1 63.35V337.25C222.1 344.75 228.1 350.75 235.6 350.75C243.1 350.75 249.1 344.75 249.1 337.25V63.35L311.9 126.15C314.5 128.75 318 130.15 321.4 130.15C324.9 130.15 328.3 128.85 330.9 126.15C336.2 120.85 336.2 112.35 330.9 107.05L245.1 21.25C242.6 18.75 239.1 17.25 235.6 17.25C232 17.25 228.6 18.65 226.1 21.25L140.3 107.05C135 112.35 135 120.85 140.3 126.15C145.5 131.35 154.1 131.35 159.3 126.15Z" fill="#6A6A6A"/>
</g>
<defs>
<clipPath id="clip0">
<rect width="471.2" height="471.2" fill="white"/>
</clipPath>
</defs>
</svg>
